<svg width="100" height="100" viewBox="0 0 100 100" fill="none" xmlns="http://www.w3.org/2000/svg">
<path d="M50 100C77.6142 100 100 77.6142 100 50C100 22.3858 77.6142 0 50 0C22.3858 0 0 22.3858 0 50C0 77.6142 22.3858 100 50 100Z" fill="#2A468E"/>
<path d="M75.1754 71.5922H49.9206C37.9939 71.5922 28.3203 61.9266 28.3203 49.9919C28.3203 38.0652 37.9859 28.3916 49.9206 28.3916H49.9366C61.8633 28.3916 71.5369 38.0572 71.5369 49.9919V58.2801C71.5448 63.2403 76.6961 65.804 76.6961 65.804C79.9127 67.7865 79.1881 71.5206 75.1834 71.5922H75.1754Z" fill="white"/>
</svg>
